<?xml version="1.0" encoding="UTF-8"?>
<svg id="_레이어_2" data-name="레이어_2" xmlns="http://www.w3.org/2000/svg" xmlns:xlink="http://www.w3.org/1999/xlink" viewBox="0 0 235.18 201.12">
  <defs>
    <style>
      .cls-1 {
        fill: #0e1e30;
      }

      .cls-2 {
        clip-path: url(#clippath-4);
      }

      .cls-3 {
        fill: #d58830;
      }

      .cls-4 {
        fill: #d6d9d6;
      }

      .cls-5 {
        fill: #d7d8d6;
      }

      .cls-6 {
        fill: #3b4298;
      }

      .cls-7 {
        fill: #83358f;
      }

      .cls-8 {
        fill: none;
      }

      .cls-9 {
        clip-path: url(#clippath-1);
      }

      .cls-10 {
        fill: #88898b;
      }

      .cls-11 {
        fill: #0c347b;
      }

      .cls-12 {
        fill: #19181c;
      }

      .cls-13 {
        clip-path: url(#clippath-3);
      }

      .cls-14 {
        fill: #3e489c;
      }

      .cls-15 {
        clip-path: url(#clippath-2);
      }

      .cls-16 {
        fill: #da0d16;
      }

      .cls-17 {
        clip-path: url(#clippath);
      }

      .cls-18 {
        fill: #7a7c7b;
      }

      .cls-19 {
        fill: #e0e1df;
      }
    </style>
    <clipPath id="clippath">
      <rect class="cls-8" width="235.18" height="201.12"/>
    </clipPath>
    <clipPath id="clippath-1">
      <path class="cls-8" d="M124.91,87.77l-13.38.93c-4.3-.24-4.05,3.12-4.05,3.12v12.79c-.24,2.64,2.98,1.85,2.98,1.85,6.98-2.98,1.85-6.3,1.85-6.3-.49-.15-.93-2.29-.93-2.29-.29-2.25,1.37-1.42,1.37-1.42.49-.34,1.37,3.03,1.37,3.03.19-.34,3.27-3.42,3.27-3.42,3.27-1.76,1.02,3.03,1.02,3.03-1.22,3.81,1.17,8.05,1.17,8.05-.39,2.64-2.54,1.42-2.54,1.42-.73-.1-2.68-1.95-2.68-1.95-1.22,4.05-7.57,1.71-7.57,1.71,1.42,5.91,5.96,5.03,5.96,5.03h13.23c2.64,0,2.39-2.64,2.39-2.64,0,0-.05-18.06,0-20.8.03-1.91-1.68-2.2-2.71-2.2-.44,0-.76.05-.76.05"/>
    </clipPath>
    <clipPath id="clippath-2">
      <rect class="cls-8" width="235.18" height="201.12"/>
    </clipPath>
    <clipPath id="clippath-3">
      <path class="cls-8" d="M113.8,89.21c-6.54-.09-9.96,2.05-9.96,2.05-3.56,2.54.71,3.3.71,3.3,4.91-.44,7.35,3.34,7.35,3.34,2.17,6.3-3.93,7.35-3.93,7.35-5.59-.1-4.61,2.71-4.61,2.71,2.51,3.81,14.86,2.61,14.86,2.61,7.05-.66,8.93-4.74,8.93-4.74,3.17-.78-.02,4.37-.02,4.37-1.37,2.73,1.32,1.46,1.32,1.46,3.81-1.56,3.91-8.12,3.91-8.12,2.96-13.2-11.35-14.39-16.64-14.39-1.18,0-1.91.06-1.91.06"/>
    </clipPath>
    <clipPath id="clippath-4">
      <rect class="cls-8" width="235.18" height="201.12"/>
    </clipPath>
  </defs>
  <g id="_작업_레이어" data-name="작업_레이어">
    <g id="Logo">
      <g class="cls-17">
        <path class="cls-1" d="M173.45,107.34s13.41,3.91,18.39-4.58c0,0,3.95-14.64,7.62-18.75,0,0,10.1-14.79,20.94-4.69,0,0,5.56,4.83,4.98,9.52,0,0,7.03,3.51,8.05,10.25,0,0,3.51,16.69.59,20.36,0,0-2.49,4.79-5.27,5.76,0,0,1.17,5.22-6.74,8.81,0,0-1.03,6.52-11.28,6.96,0,0-20.01,2.2-26.48-13.47,0,0-8.4-15.43-10.8-20.17"/>
        <path class="cls-14" d="M185.04,110.37s-10.39-6.35-7.7,4.03c0,0,5.62,10.79,9.13,12.49,3.51,1.69,5.08,4.53,5.08,4.53,0,0,5.96,5.17,12.59,5.37,6.64.2,13.57.68,17.57-8.4,0,0,1.27-1.56,4.39-3.17,0,0,1.37-2.2,2.25-6.01,0,0,4.3-22.55-4.59-27.14,0,0-.98-10.35-7.62-10.45-6.64-.1-7.52,3.81-7.22,7.32,0,0,1.76,7.81-5.37,10.15,0,0-6.35.24-8.98,7.83,0,0-3.94,8.57-9.53,3.44"/>
        <path class="cls-5" d="M178.27,112.32s3.66,3.03,10.59,2.07c0,0-1.46,4.17,0,7.88,0,0-8.93-1.76-10.59-9.96"/>
        <path class="cls-5" d="M195.94,127.02v-12.79s-.24-3.37,4.05-3.12l13.38-.93s3.51-.59,3.47,2.15c-.05,2.73,0,20.8,0,20.8,0,0,.24,2.64-2.39,2.64h-13.23s-4.54.88-5.96-5.03c0,0,6.35,2.34,7.57-1.71,0,0,1.95,1.86,2.68,1.95,0,0,2.15,1.22,2.54-1.42,0,0-2.39-4.25-1.17-8.05,0,0,2.25-4.78-1.02-3.03,0,0-3.08,3.08-3.27,3.42,0,0-.88-3.37-1.37-3.03,0,0-1.66-.83-1.37,1.42,0,0,.44,2.15.93,2.29,0,0,5.13,3.32-1.85,6.3,0,0-3.22.78-2.98-1.85"/>
      </g>
      <g class="cls-9">
        <path class="cls-10" d="M109.25,96.28c-.01-.57.11-1.14.24-1.69.12-.53.27-1.1.69-1.46.6-.53,1.56-.4,2.25,0,.69.4,1.22,1.03,1.85,1.53.3.24.7.46,1.05.3.2-.09.33-.29.47-.46.46-.54,1.15-.84,1.83-1.06.95-.3,1.95-.48,2.93-.33.98.15,1.94.67,2.45,1.53.14.23.24.49.24.76,0,.3-.12.59-.18.89-.23,1.03.17,2.22-.43,3.09-.36.53-1.01.78-1.45,1.25-.53.58-.69,1.41-.63,2.2.05.78.3,1.54.46,2.3.13.62.22,1.26.25,1.89.04.86-.02,1.75-.39,2.52-.37.77-1.12,1.41-1.97,1.46-.67.04-1.31-.27-1.91-.58-.96-.49-1.93-.97-2.89-1.46-.09-.05-1.52.65-1.79.7-.59.12-1.32.19-1.87-.12-.92-.53-1.14-1.96-.85-2.9.38-1.21,1.32-2.24,1.58-3.49.23-1.11-.19-2.17-.65-3.16-.54-1.18-1.25-2.37-1.28-3.71"/>
      </g>
      <g class="cls-15">
        <path class="cls-5" d="M200.43,104.47s-1.17-3.13,5.62-2.88h12.84s5.76-1.03,5.86,4.44.49,21.28.49,21.28l-4.98,1.56v-21.94l-19.9.95.08-3.41Z"/>
        <path class="cls-10" d="M199.06,108.04c-.07.27-.14.57-.03.83.12.27.4.42.67.54.94.41,1.95.67,2.97.75,1.32.1,2.64-.09,3.95-.28,2.17-.31,4.35-.63,6.52-.94.34-.05.68-.1,1.01-.15,1.29-.19,2.59-.37,3.89-.35.19,0,.38.01.56.09.6.28.56,1.13.45,1.78-1,5.95.58,12.04.16,18.06.53.52,1.5.19,1.89-.44.39-.63.37-1.43.35-2.17-.21-5.81-.19-11.62.05-17.42.02-.58.05-1.19-.15-1.73-.2-.55-.69-1.03-1.28-1.04-.64,0-1.16.53-1.79.66-.99.19-1.89-.67-2.9-.72-.99-.05-1.81.68-2.72,1.07-2.31,1.01-5.4.11-7.84,0-2.29-.09-4.97-1.5-5.77,1.46"/>
        <path class="cls-5" d="M206.05,83.91s-1.91,3.12.83,2.68l4.83-3.17.73.78v10.06l3.95,2.98,4.49-.54.63-.73v-9.32s-.29-5.17-5.22-5.86c0,0-4.25-1.37-6.49.29-2.25,1.66-.04-.29-3.76,2.83"/>
        <path class="cls-10" d="M207.45,85.37c-.19.22-.36.46-.39.75-.03.28.13.6.41.67.25.06.5-.11.71-.26.96-.71,1.92-1.41,2.88-2.12.16-.11.32-.23.51-.26.19-.03.41.06.47.25.04.15-.04.31-.11.45-.42.94-.16,2.02-.21,3.05-.03.54-.15,1.07-.23,1.61-.18,1.24-.11,2.5-.04,3.75.05.83.1,1.71.56,2.4.35.53.89.9,1.41,1.25.42.28.84.56,1.31.74.35.13.72.21,1.09.28,1.49.3,3.05.59,4.51.14.09-.58.86-.86.95-1.44.07-.49-.42-.91-.91-.99-.49-.08-.99.07-1.49.12-.92.1-1.83-.12-2.72-.37-.7-.2-1.45-.45-1.87-1.05-.16-.23-.26-.49-.35-.76-1.01-2.94-1.13-6.11-1.08-9.22,0-.26,0-.55-.18-.74-.1-.11-.24-.16-.38-.21-1.67-.54-3.74.68-4.83,1.94"/>
        <path class="cls-5" d="M223.47,95.43s-.05-3.03,2.64-2.2c0,0,.98.83,1.61,1.03.63.19-.63-.19-.63-.19,0,0,2.93,1.07,3.42,5.03,0,0,2.88,12.89,1.17,16.74,0,0-.73,4.54-3.27,5.08,0,0-2.1-.2-1.95-6.15,0,0,.49-1.67.49-4.64s.54-10.2.15-10.59l-3.03.78s-1.9.33-1.51-2.01c0,0,.29-1.12.98-1.07,0,0-.34-1.46-.05-1.81"/>
        <path class="cls-10" d="M223.2,100.51c.06.08.14.15.24.17.09.02.18,0,.26-.01.94-.17,1.87-.33,2.81-.5.03,2.48.05,4.97.08,7.45,0,.45,0,.9.01,1.36,0,.46,0,.92.01,1.38.01,1.39.03,2.79-.06,4.18-.06.84-.15,1.68-.09,2.51.05.79.24,1.56.44,2.33.08.31.17.63.36.9.19.27.52.48.88.47.51-.02.87-.49.92-.95.05-.46-.14-.9-.28-1.34-.41-1.26-.52-2.6-.3-3.9.07-.45.19-.9.25-1.35.09-.64.08-1.3.06-1.95-.08-3.89-.16-7.79-.24-11.68,0-.39-.02-.79-.2-1.14-.21-.43-.68-.76-1.2-.84-.15-.02-.31-.03-.46.02-.5.14-.89.51-1.41.65-.37.1-.75.14-1.12.29-.77.31-1.6,1.19-.97,1.96"/>
        <path class="cls-1" d="M32.07,70.24s-25.24-7.27-31.05,11.86c0,0-5.13,12.59,7.62,18.45,0,0,3.66,1.17,5.42,1.76,0,0,6.69,1.85,1.98,10.84,0,0-7.74,12.59,6.71,22.75,0,0,2.54,2.83,7.42,2.15,0,0,4.39-.59,6.74,3.51,0,0-.68,6.54,16.21-1.07,16.89-7.62-6.25-56.43-6.25-56.43l-14.79-13.81Z"/>
        <path class="cls-18" d="M65.26,10.45S103.34-7.71,153.28,3.86c0,0,28.19,6,42.84,15.6,0,0,28.92,11.94,15.01,38.88,0,0-1.46-8.05-3.95-8.93,0,0,1.46,5.13-3.37,8.05,0,0,8.79,16.84-5.86,22.41,0,0-6,4.17-13.4,2.78l-.15-3.95s3.15-1.17,2.34-5.49c0,0-.73,2.2-2.49,3.22,0,0,2.86,10.47-8.27,14.94,0,0-.81,1.03-.29,3.22,0,0,6.81,12.01-3.51,15.82,0,0,13.91,13.62-2.27,24.16,0,0,9.52,9.08-8.86,30.53,0,0-3.73,5.49-16.04,9.89,0,0-13.18,4.47-13.84,26.14,0,0-20.43-6.08-9.67-39.54,0,0-22.11,1.76-20.65-17.5,0,0-8.35,0-11.79-13.33l-57.19-56.31s-13.86-1.56-5.96-20.11c0,0,9.57-18.16,35.34-29.19,0,0,19.23-9.67,48.91-13.57,0,0-8.59-5.66-44.91-1.12"/>
        <path class="cls-11" d="M117.83,6.83s86.11,3.71,91.97,37.1c0,0-5.86-4.98-12.99-3.51,0,0,10.06,12.11-1.76,13.86,0,0,13.38,18.11-6.25,24.34,0,0,5.8-7.64-3.25-16.13,0,0,2.28,8.79-5.44,12.98,0,0,3.61,8.49-4.69,11.81,0,0-4.59,2.73-2.54,8.69,0,0,5.37,11.23-6.64,13.57,0,0,15.33,10.15-3.03,16.99,0,0-11.91,3.61-15.04,8.01,0,0,10.54-3.61,15.62-2.25,0,0-1.95,3.32-.49,8.2,0,0,3.12,5.96-2.15,12.11,0,0-5.37,9.27-12.3,12.69,0,0-17.28,5.17-22.06,26.07,0,0-5.76-18.35-1.07-32.9,0,0-26.75,2.73-20.4-18.55,0,0-12.4,4.49-13.86-14.64l-53.7-55.75s-6.83-16.11,13.86-29.97c0,0,21.38-16.69,50.57-21.48,0,0,14.74-3.03,33.19-3.51,0,0-7.81-4.59-17.57-7.71"/>
        <path class="cls-1" d="M122.52,32.46s-10.54.34-12.69,5.91l12.69,12.89,4.88,5.76,31.24,6.64,14.25,9.08s15.43.49,4.78-9.08c-10.64-9.57,0-.59,0-.59l-21.54-16.55-17.9-11.27-15.72-2.78Z"/>
        <path class="cls-1" d="M107.68,80.73s9.18-6.83,20.8-3.7c0,0,1.66,3.22,11.03,2.83,0,0,9.96-1.27,16.5,4.88,0,0,4,3.61,6.64,4,0,0,3.42.49,3.81,5.76,0,0,2.1,4.22,4.15,6.05,0,0,5.86,4.83-4.91,8.64,0,0-3.08,2.56-3.37,5.2,0,0-20.55-16.33-54.65-4.98,0,0,8.21-4.54,8.03-12.74,0,0,1-5.78-1.49-8.49,0,0,4.56-8.38-6.54-7.45"/>
        <path class="cls-16" d="M135.02,40.81s-4.03,10.25,6.81,12.08c0,0,5.57,2.27,15.45,1.68,0,0-8.27-3.59-10.03-6.08,0,0-2.05-5.27-12.23-7.69"/>
        <path class="cls-6" d="M69.21,33.39s55.84-26.75,122.23-4.49c0,0-27.34-4.88-56.43.98,0,0,45.5.2,53.89,8.59,0,0,11.33,8.59-6.44,11.72,0,0-9.37-1.56-13.08-6.44,0,0-11.32-7.03-33.98-9.57,0,0-13.86-4.88-25.38,2.54l-29.68,11.91-22.46,10.15s-20.5,8.2-13.08-1.17c0,0,7.22-13.92,11.32-16.53,4.1-2.61,0-1.43,13.08-7.68"/>
        <path class="cls-14" d="M155.13,44.13s28.19,4.87,33.98,19.92c0,0-2.49-2.54-4.86-1.95,0,0,1.2,6.1,0,7.81,0,0-1.29-5.86-7.88-7.27-6.59-1.42-20.11-13.23-21.23-18.5"/>
        <path class="cls-14" d="M75.19,59.33s20.36-13.84,30.17-16.55c0,0,17.5-6,24.75,3.81,0,0-9.89,2.86-8.2,7.76,1.68,4.91,11.57,3.44,11.57,3.44,0,0,15.08.39,22.99,4.3,7.91,3.9,17.87,8.3,17.79,11.81-.07,3.51,1.68,6.59-4.47,7.69,0,0-12.37-10.25-26.36-10.98-13.99-.73-24.82-2.51-29.95-.71-5.13,1.81-21.6,4.15-21.6,4.15l-5.05-6.52,4.76-5.44s9.3-6.2,14.64-9.28c0,0-22.7,8.64-27.82,12.3l-3.22-5.78Z"/>
        <path class="cls-14" d="M92.55,83.28l16.94-7.86s6.77-3.08,8.34,0c0,0,.54,1.42,9.09-.68,0,0,5.91-2.34,23.53.24,0,0,20.5,4.93,22.99,13.38,0,0,.68,2.05-8.15,0,0,0-12.16-10.25-21.28-10.5,0,0-6.88,1.61-9.91,1.07-3.03-.54-21.14-2.59-25.82,1.81,0,0,8.59-.93,6.2,6.05,0,0-10.45,1.07-15.86,6.25l-6.05-9.76Z"/>
        <path class="cls-14" d="M98.84,96.17s8.64-6,15.72-6.69c0,0,1.56,2.73.83,10.49,0,0,1.27,4.74-8.45,9.57,0,0,5.03-2.73,10.98-2.44,0,0-14.69,7.52-17.09,12.99,0,0-4.83,5.13-4.25-2.2.59-7.32,6.69-10.98,6.69-10.98,0,0,8.01-5.22,8.3-5.17.29.05,1.76-1.71,1.76-3.42,0,0-9.23,3.12-13.52,9.23l-.05-4.34s9.37-7.81,13.42-7.91c0,0,.34-2.25.05-2.25,0,0-11.67,4.39-14.01,6.93l-.39-3.81Z"/>
        <path class="cls-14" d="M156.5,113.15s-37.59-17.38-50.38,5.17l-5.96,9.08s-1.95,11.03,6.54,6.64c8.49-4.39,13.47-17.09,26.16-17.77,0,0-10.74,1.46-19.23,21.77l1.66,14.35,10.64-15.23s4.98-6.44,7.52-7.13c0,0-8.69,7.22-4.78,18.35l4.1-5.17,4.69,5.86,1.07.78s-3.51-9.86,5.66-16.11l15.33-9.27-.88-5.27-5.86-1.76-14.25,5.37-11.13,5.86s14.45-17.48,29.09-15.52"/>
        <path class="cls-14" d="M153.08,135.12s-13.57,2.93-13.08,16.11l-3.61,12.11s15.04-5.57,15.72-5.76c.68-.2,5.47-5.17,5.47-5.17l.98-9.47-2.25-5.66-3.22-2.15Z"/>
        <path class="cls-7" d="M71.75,32.46s20.36-13.18,69.12-13.18c0,0,34.56-.73,50.23,9.52,0,0-32.66-8.93-61.36-6.44,0,0-33.54.88-57.99,10.1"/>
        <path class="cls-7" d="M56.62,41.2s-6.54,2.44-13.67,13.96c0,0-5.47,8.4,4,7.62,0,0,7.42-.98,14.25-5.47,0,0-7.81-.59-6.15-7.52,1.66-6.93,1.56-8.59,1.56-8.59"/>
        <path class="cls-7" d="M64.72,56.04s25.77-14.45,33.19-16.69c0,0,18.35-7.13,29.09,3.42,0,0-18.84-6.25-33.68,1.85,0,0-23.43,9.86-28.61,11.42"/>
        <path class="cls-7" d="M110.71,36.32s6.54-7.81,21.67-3.86c0,0,15.23,2.29,24.31,14.79,0,0,16.11,14.55,20.99,15.82,0,0-7.22,3.32-28.22-18.16,0,0-19.14-16.69-38.76-8.59"/>
        <path class="cls-7" d="M125.94,46.51s8.3-1.31,3.42,3.67c0,0-8.32,3.12-.94,4.69,0,0,20.76.88,34.23,8.79l-7.13-.88-19.33-2.73-11.81-.59s-7.4.44-5-6.52c0,0,.9-4.03,6.57-6.42"/>
        <path class="cls-7" d="M76.44,59.16s8.2-.88,9.37-.78c1.17.1,1.37-1.07-.59-1.66,0,0,12.69-4,20.21-4,0,0-23.82,9.57-26.85,12.59l-2.15-6.15Z"/>
        <path class="cls-7" d="M80.44,69.51s12.2-13.67,20.5-4.2c0,0,2.25,5.47,13.28,2.93,0,0,31.44-4.98,60.14,9.76l-1.07,2.88-4.1.44s-16.99-11.33-35.24-10.84c-18.26.49-28.7-.89-41.4,10.25l-12.11-11.22Z"/>
        <path class="cls-7" d="M102.41,122.33s-5.47,1.07-5.17,9.08c0,0,.59,11.13,11.52,4.3,0,0,7.79-7.03,10.44-12.11,0,0,5.87-6.74,13.68-7.22,0,0-6.25-1.85-12.89,1.37l-9.08,9.76-6.25,3.91-3.22-2.15.98-6.93Z"/>
        <path class="cls-7" d="M125.94,136.78s-1.46,2.54-7.52,2.54c0,0-.29-9.62-5.37-1.39,0,0-10.45,15.26,12.2,18.28,0,0-6.35-8.79.68-19.43"/>
        <path class="cls-7" d="M127.3,145.4s-2.15-12.43,6.35-3.74l5.86,8.1,3.32.39s4,.2,1.46,4.2l-4.69,8.59-7.71,11.03-3.81,5.56s1.19-12.26,8.01-20.48c0,0,2.75-3.37,2.63-6.95,0,0-5.08-7.42-6.44-6.15,0,0-1.85,3.42-1.56,8.2,0,0-2.83-1.3-3.42-8.76"/>
        <path class="cls-5" d="M124.77,80.06s-5.42.29-3.73,9.01c0,0,0,5.49,4.69,4.69,0,0-7.18,1.39-10.69,11.42l17.43-1.83,16.69,2.64,11.86,4.39s-.51-3.95-3.95-7.91c0,0,2.42-.59,3.95,1.32l3.73-2.56-2.12-7.47-4.1-4.03-7.32.07-4.54-2.93-4.54-3.95-7.03,3.22-4.98-1.9-5.35-4.17Z"/>
        <path class="cls-5" d="M168.55,102.39s-4.54-1.46-6.15,1.32c0,0-2.12,2.93,1.61,3.22,0,0,5.05-2.34,4.54-4.54"/>
        <path class="cls-18" d="M122.86,80.89s3.15-2.99,7.62,1.88c0,0,2.86,4.39,6.66,1.17,0,0,4.1-3.73,7.62-.07,0,0,3.37,2.71,3.59,3.51,0,0,1.76,2.34,6.81,1.54,0,0,9.23.15,8.79,8.93,0,0-.29,1.54,1.39,2.12,1.68.59,3.08.59,3.08.59,0,0,1.17.07.51.73-.66.66-3.81,0-3.81,0,0,0-1.17.22-1.54-.73-.37-.95-2.29-3.12-2.34-6.54,0,0-1.17-3.86-5.42-3.76,0,0-4.3-1.27-6,3.71,0,0,1.85-4.3-1.66-4.44,0,0-1.95-.59-3.12-3.12,0,0-1.71-4.49-5.32-.83,0,0-4.59,4.1-8.64,1.07,0,0-2.44-.1-3.61-2.93,0,0-.68-2.29-4.59-2.83"/>
        <path class="cls-18" d="M112.85,105.98s3.61-3.86,10.98-3.47c0,0,6.25,0,9.67-5.96,0,0-.64,4.48,2.24,5.48.1.03.19.06.3.09,3.22.78,7.13,1.61,8.15,1.56,1.02-.05-1.03.05-1.03.05,0,0,5.08,2.44,4.93-4.25,0,0,3.22,5.86,5.47,5.61,0,0,2.1.59,2.54.2,0,0,2.2,3.95,4.98,4.15v1.42l-2.59-.24s-10.59-4.25-17.28-5.22c-6.69-.98-25.53-.88-28.36.59"/>
        <path class="cls-12" d="M133.71,93.91c-.16,1.71-.79,3.04-1.41,2.99s-1-1.49-.84-3.19c.16-1.71.79-3.04,1.41-2.99.62.06,1,1.49.84,3.19"/>
        <path class="cls-12" d="M148.49,96.54c.19,1.43-.09,2.64-.61,2.71-.52.07-1.1-1.04-1.28-2.47-.19-1.43.09-2.64.61-2.71.52-.07,1.1,1.04,1.28,2.47"/>
        <path class="cls-19" d="M134.14,30.48s31.78-5.13,54.7,5.93c0,0,6.3,2.71,4.61,8.13-1.01,3.26-3.37,6.22-12.45,5.57,0,0,15.08-5.98,4.61-11.13,0,0-19.04-5.13-32.95-6.52,0,0-12.37-1.83-19.84-1.39l1.32-.59Z"/>
        <path class="cls-19" d="M133.33,32.32s17.43,1.03,24.6,10.1c0,0,3.73,4.39,4.91,7.03,0,0,2.56,4.32,10.1,5.2,0,0,7.19-.07,12.09,7.4,0,0-8.87-4.76-11.87-4.98,0,0-9.59.78-16.77-9.45,0,0-7.18-10.18-23.07-15.3"/>
        <path class="cls-19" d="M138.02,59.85s17.72-1.54,32.22,7.98c0,0,9.35,5.37,6.59,11.57,0,0-2.42,7.25-11.35.37,0,0,10.4,3,6.52-4.69,0,0-4.32-7.54-16.84-11.06,0,0-15.3-3.22-17.13-4.17"/>
        <path class="cls-19" d="M91.08,80.89s5.09-10.13,26.36-13.03c0,0,16.55-2.11,34.27,5.96,0,0-34.37-9.96-59.26,7.81l-1.37-.73Z"/>
        <path class="cls-19" d="M106.17,118.72s-8.35,3.08-6.15,10.91c1.92,6.84,9.89,3.37,13.08-2.86.78-1.53,1.65-3.05,2.83-4.31.9-.96,1.94-1.86,2.98-2.66,2.72-2.09,5.92-3.54,9.31-4.08-.34.05-.82-.11-1.16-.12-1.03-.05-2.07.02-3.09.18-3.4.56-6.48,2.29-8.87,4.75-1.56,1.6-2.48,3.69-3.9,5.41-.98,1.18-2.29,2.2-3.61,2.99-2.23,1.34-4.17,1.05-4.36-1.87-.06-.97.03-1.96.17-2.92,0,0,.22-2.34,2.78-5.41"/>
        <path class="cls-19" d="M123.77,131.9s8.23-13.18,28.17-15.45c0,0,3.81-.6,8.27,2.64,0,0,6.88,6.52-7.98,9.01,0,0,12.46-5.91,1.68-7.76,0,0-6.88-.15-14.57,3.81,0,0-11.28,4.61-16.77,9.89l1.2-2.12Z"/>
        <path class="cls-19" d="M133.99,129.92s-22.85,9.67-9.59,27.09c0,0-4.02-14.31,9.59-27.09"/>
        <path class="cls-19" d="M153.03,135.12s8.27,8.71.51,19.77c0,0-.81,1.83-6.08,2.93,0,0-7.32.71-12.14,8.16,0,0-8.44,10.58-8.95,16.51,0,0,10.25-14.57,12.89-17.21,0,0,2.78-4.1,11.2-5.57,0,0,9.08-2.64,9.15-12.59,0,0,2.34-10.47-6.59-12.01"/>
        <path class="cls-5" d="M196.11,19.45c-14.64-9.59-42.84-15.6-42.84-15.6-49.94-11.57-88.01,6.59-88.01,6.59,36.32-4.54,44.91,1.12,44.91,1.12-29.68,3.91-48.91,13.57-48.91,13.57-25.77,11.03-35.34,29.19-35.34,29.19-7.91,18.55,5.96,20.11,5.96,20.11l57.19,56.31c3.44,13.33,11.79,13.33,11.79,13.33-1.46,19.26,20.65,17.5,20.65,17.5-10.76,33.46,9.67,39.54,9.67,39.54.66-21.67,13.84-26.14,13.84-26.14,12.3-4.39,16.04-9.89,16.04-9.89,18.38-21.45,8.86-30.53,8.86-30.53,16.18-10.54,2.27-24.16,2.27-24.16,10.32-3.81,3.51-15.82,3.51-15.82-.51-2.2.29-3.22.29-3.22,6.28-2.52,8.11-6.95,8.51-10.34l.06,1.62c7.4,1.39,13.4-2.78,13.4-2.78,14.64-5.57,5.86-22.41,5.86-22.41,4.83-2.93,3.37-8.05,3.37-8.05,2.49.88,3.95,8.93,3.95,8.93,13.91-26.95-15.01-38.88-15.01-38.88M184.25,76.42c1.76-1.02,2.49-3.22,2.49-3.22.7,3.73-1.55,5.11-2.18,5.42-.07-1.33-.31-2.2-.31-2.2M184.83,80.87l.28-.14.13.15-.41-.02ZM207.88,47.38l-3.92-1.38,1.14,3.99c.09.35.85,3.65-2.42,5.63l-1.72,1.04.93,1.78c.04.07,3.93,7.7,1.67,13.61-1.02,2.66-3.1,4.55-6.39,5.8l-.25.09-.22.15s-3.98,2.68-9.1,2.68c-.76,0-1.51-.06-2.25-.17l.14-.07c2.12-1.04,4.11-3.62,3.34-7.74l-1.52-8.15-2.62,7.86c-.14.41-.7,1.57-1.54,2.06l-1.42.83.43,1.59s.18.69.24,1.75l.11,2.04h-.17c-.47,3.97-2.89,6.87-7.18,8.59l-.53.21-.35.45c-.24.31-1.41,1.99-.69,5.03l.07.3.15.27c.83,1.48,2.73,6.02,1.54,9.25-.59,1.6-1.87,2.74-3.93,3.5l-3.18,1.17,2.42,2.37c.05.05,5.48,5.49,4.87,11.55-.35,3.45-2.64,6.57-6.81,9.29l-2.35,1.53,2.04,1.82c.05.05,1.85,1.95,1.8,6.12-.05,4.1-1.97,11.15-10.81,21.46l-.08.09-.07.1s-3.65,5.02-14.98,9.07c-.53.18-13.22,4.71-15.07,24.84-1.83-1.15-4.28-3.23-6.12-6.77-3.61-6.96-3.46-16.64.44-28.8l.98-3.05-3.19.25s-.47.04-1.24.04c-2.89,0-10.05-.47-14.13-4.87-2.31-2.49-3.31-5.98-2.97-10.36l.18-2.31h-2.31c-.24,0-6.77-.34-9.71-11.72l-.15-.58-58.14-57.24-.74-.08s-3.68-.5-5.45-3.58c-1.7-2.96-1.29-7.61,1.19-13.46.66-1.18,10.32-17.91,34.25-28.15l.06-.03.06-.03c.19-.09,19.3-9.55,48.23-13.36l5.71-.75-4.81-3.17c-.5-.33-5.38-3.24-21.27-3.24-2.21,0-4.53.06-6.96.17,9.23-2.36,21.76-4.56,36.41-4.56,11.19,0,22.38,1.28,33.26,3.8h.04c.28.07,27.97,6.04,42.11,15.3l.17.11.19.08c.12.05,12.33,5.23,16.25,15.97,1.62,4.44,1.61,9.27-.02,14.42-.86-2.08-2.05-3.88-3.65-4.44"/>
        <path class="cls-1" d="M54.86,67.46s2.93-9.27,12.69-11.81c9.76-2.54,11.62,6.64,11.62,6.64,0,0,1.27,3.81-.49,11.32-1.76,7.52-23.82-6.15-23.82-6.15"/>
        <path class="cls-14" d="M37.58,74.78s-24.8-5.21-30.66,1.01c0,0-11.18,8.44,2.44,21.4,0,0,10.32,5.54,15.45,7.02,0,0-6.96.52-6.22,9.9.73,9.37.44,20.8,7.69,22.85,7.25,2.05,5.86-.44,10.4,3.15,4.54,3.59,19.55-1.83,19.55-1.83l-18.65-63.48Z"/>
        <path class="cls-3" d="M100.58,102.73c0-21.77-17.92-39.42-40.03-39.42s-40.03,17.65-40.03,39.42,17.92,39.42,40.03,39.42,40.03-17.65,40.03-39.42"/>
        <path class="cls-1" d="M60.55,63.31c-22.11,0-40.03,17.65-40.03,39.42s17.92,39.42,40.03,39.42,40.03-17.65,40.03-39.42-17.92-39.42-40.03-39.42M60.55,140.54c-21.18,0-38.42-16.96-38.42-37.81s17.24-37.81,38.42-37.81,38.42,16.96,38.42,37.81-17.24,37.81-38.42,37.81"/>
        <path class="cls-1" d="M47,139.66l-1.35-.86s4.51-.35,10.76-4.38c5.79-3.73,14.33-11.45,22.16-27.09,10.82-21.63,7.04-33.42,7-33.54l1.07-.37c.17.49,4.01,12.3-7.06,34.41-7.97,15.93-16.71,23.8-22.64,27.59-6.48,4.15-9.75,4.21-9.94,4.23"/>
        <path class="cls-1" d="M93.83,83.38c-10.2-3.58-25.8-17.71-26.42-18.28l.77-.83c.15.14,15.04,13.58,24.89,17.54l.76,1.57Z"/>
        <path class="cls-1" d="M99.46,101.99c-.39-1.97-8.78-8.69-13.98-12.47-16.64-10.46-31.36-11.91-40.77-11.29-10.21.67-16.57,3.86-16.63,3.89l-.52-1.01c.26-.14,6.59-3.31,17.01-4.01,9.6-.64,24.6.83,41.53,11.47l.03.02c1.41,1.03,13.83,10.12,14.44,13.18l-1.11.22Z"/>
        <path class="cls-1" d="M87.36,131.82l-1.05-.42c2.24-5.61,3.01-20.56,3.04-21.18-.12-5.78-1.89-9.85-5.26-12.08-7-4.64-18.74-.02-18.85.02-10.4,3.47-40.2,20.3-40.5,20.47l-.56-.99c1.23-.69,30.19-17.06,40.67-20.55.47-.19,12.37-4.87,19.87.09,3.71,2.46,5.65,6.84,5.77,13.03v.02s0,.02,0,.02c-.03.64-.78,15.69-3.12,21.56"/>
        <path class="cls-14" d="M68.04,56.53s-7.91,1.95-10.93,6.15c-3.03,4.2-4.32,8.37-4.32,8.37,0,0-.59,4.47-2.64,7.98,0,0-2.78,3.66,1.02,6.74,0,0,6.96,5.13,12.52,0,0,0,10.47-10.32,11.86-11.42,0,0,5.27-8.42,1.32-14.06,0,0-2.73-4.74-8.84-3.76"/>
        <path class="cls-5" d="M65.16,59.7s-7.18,2.86-10.25,12.45c0,0-4.54,6.08-2.56,8.79,0,0,1.39,6.74,7.69,4.47,0,0,11.2-4.17,14.94-14.42,0,0,3.88-12.67-9.81-11.28"/>
        <path class="cls-10" d="M52.2,76.91s-1.32,4.25.59,6.74c0,0,2.88,4.12,8.49,1.25,4.64-2.38,4.72-1.65,10.69-8.35,1.42-1.6-11.06,5.86-15.08,3.66,0,0-3.22-1.1-4.69-3.3"/>
        <path class="cls-5" d="M15.22,73.71s22.16-1.79,18.55,14.34c0,0-.1,6.56-3.91,8.12,0,0-2.68,1.27-1.32-1.46,0,0,3.2-5.15.02-4.37,0,0-1.88,4.08-8.93,4.74,0,0-12.35,1.2-14.86-2.61,0,0-.98-2.81,4.61-2.71,0,0,6.1-1.05,3.93-7.35,0,0-2.44-3.78-7.35-3.34,0,0-4.27-.76-.71-3.3,0,0,3.42-2.14,9.96-2.05"/>
      </g>
      <g class="cls-13">
        <path class="cls-10" d="M103.72,106.37s.66-.85,6.96,1c0,0,6.93-.78,9.37-.24,0,0,2.15-.29,4.93-2.49,2.78-2.2,5.47-2.04,5.96.78,0,0,1.17,1.36.54,2.69-.63,1.33-3.32,6.53-3.32,6.53l-5.13-3.32-17.09.2-3.27-2.05.05-2.78,1-.32Z"/>
      </g>
      <g class="cls-2">
        <path class="cls-4" d="M31.76,117.94s10.43-13.77,18.28-3.32c0,0,3.54,7.71-8.61,15.43l-8.9,5.96s-3.83,2.83-5.45.49c-1.63-2.34-5.69-4.93-1.1-12.11l5.79-6.44Z"/>
        <path class="cls-4" d="M51.97,122.42c-.31,2.15.67,4.48-.23,6.46-.39.85-1.08,1.51-1.75,2.16-.82.79-1.64,1.57-2.46,2.36-.51.48-1.01.97-1.54,1.43-1.78,1.53-3.81,2.75-5.87,3.89-.54.3-1.11.62-1.44,1.13-.72,1.14.12,2.76,1.38,3.28,1.25.52,2.7.23,3.98-.21,3.98-1.39,7.29-4.18,10.49-6.9,1.64-1.39,3.7-2.91,4.7-4.81.35-.66.74-1.09.98-1.79.8-2.38,1.62-4.48-.25-7.53-.97-1.58-2.68-3.06-4.57-3.22-1.96-.16-3.18,2.07-3.42,3.76"/>
        <path class="cls-10" d="M49.61,113.27c-.7.17-1.15.81-1.31,1.45-.16.64-.09,1.31-.12,1.97-.06,1.63-.66,3.2-1.26,4.74-.29.75-.59,1.5-1.06,2.17-.66.94-1.63,1.65-2.59,2.34-.93.67-1.86,1.35-2.78,2.03-.58.42-1.16.84-1.79,1.2-.66.37-1.36.67-2.05.98-2.36,1.08-4.58,2.4-6.73,3.8-.64.41-1.28.85-1.68,1.47-.39.62-.46,1.46.04,2.01.62.68,1.8.62,2.69.27,1.43-.56,2.53-1.64,3.7-2.57,2.88-2.29,6.42-3.82,9.12-6.28.97-.89,1.83-1.9,2.95-2.64.42-.28.89-.53,1.17-.93.2-.29.29-.63.42-.95.35-.8,1.02-1.44,1.55-2.15,1.06-1.42,1.55-3.12,1.87-4.81.07-.39.14-.78.06-1.17-.15-.7-.78-1.26-.89-1.97-.02-.15-.03-.32-.14-.44-.09-.09-.22-.12-.34-.14-.67-.12-1.38.05-1.91.45"/>
        <path class="cls-10" d="M54.38,118.35c1.1-.63,3.55.91,4.12,1.46.46.45.77.51,1.09,1.14.22.43.24,1.73-.2,2.05-.96.7-3.02-1.52-4.02-1.63-1.64-.17-.14,2.4-.12,3.49,0,.48,0,.76-.05,1.05-.06.36-.15.72-.26,1.04-1.39,3.38-4.12,6.26-7.24,8.74-.39,0-.78,0-1.17-.41,0-.41,0-1.24.39-1.65,2.34-2.89,5.38-5.37,4.92-9.86-1.17-2.06-.24-5.4,2.53-5.44"/>
      </g>
    </g>
  </g>
</svg>